# xmcd
#
# Track frame offsets:
#	150
#	19364
#	37204
#	56066
#	76307
#	94080
#	112979
#	135366
#
# Disc length: 2046 seconds
#
# Revision: 0
# Processed by: cddbd v1.5.2PL0 Copyright (c) Steve Scherf et al.
# Submitted via: dBpowerAMP V4.0
#
DISCID=6407fc08
DTITLE=Con Funk Shun - Fever
DYEAR=1983
DGENRE=Funk
TTITLE0=Can You Feel The Groove Tonight
TTITLE1=Indiscreet Sweet
TTITLE2=Baby I'm Hooked (Right Into Your Love)
TTITLE3=Thinking About You, Baby
TTITLE4=Don't Let Your Love Grow Cold
TTITLE5=Lovin Fever
TTITLE6=Hard Lovin'
TTITLE7=If I'm Your Lover
EXTD=
EXTT0=
EXTT1=
EXTT2=
EXTT3=
EXTT4=
EXTT5=
EXTT6=
EXTT7=
PLAYORDER=
